# xmcd CD database file
#
# Track frame offsets:
#	150
#	50344
#	99070
#	140665
#	194466
#	207309
#	224737
#	254167
#	266075
#	295572
#	307561
#	328760
#
# Disc length: 4747 seconds
#
# Revision: 0
# Processed by: cddbd v1.5.2PL0 Copyright (c) Steve Scherf et al.
# Submitted via: CDex 1.51
#
DISCID=ba12890c
DTITLE=Buddy Rich - 3 Classic Albums CD1
DYEAR=1900
DGENRE=Jazz
TTITLE0=The Monster (The Wailing Buddy Rich-1955)
TTITLE1=Sunday
TTITLE2=A Smooth One
TTITLE3=Broadway
TTITLE4=Let's Fall In Love (The Swinging Buddy Rich-1953)
TTITLE5=Me And My Jaguar
TTITLE6=Just Blues
TTITLE7=Sweet's Opus No1
TTITLE8=Strike It Rich
TTITLE9=Sportin' Life
TTITLE10=Sonny And Sweets
TTITLE11=The Two Mothers
EXTD=
EXTT0=
EXTT1=
EXTT2=
EXTT3=
EXTT4=
EXTT5=
EXTT6=
EXTT7=
EXTT8=
EXTT9=
EXTT10=
EXTT11=
PLAYORDER=
